# xmcd
#
# Track frame offsets:
# 150
# 12936
# 27506
# 35970
# 52392
# 67548
# 81871
# 95113
# 108744
# 120129
# 136860
# 148309
# 157780
# 175681
# 189150
# 203078
# 215524
# 229594
# 246721
# 256493
# 270177
# 283996
# 300605
#
# Disc length: 4224 seconds
#
# Revision: 0
# Processed by: cddbd v1.5.1PL0 Copyright (c) Steve Scherf et al.
# Submitted via: Audion 3.0.2 (http://www.panic.com/audion/)
#
DISCID=4d107e17
DTITLE=John Sandford - Certain Prey
DYEAR=1900
DGENRE=
TTITLE0=1
TTITLE1=2
TTITLE2=3
TTITLE3=4
TTITLE4=5
TTITLE5=6
TTITLE6=7
TTITLE7=8
TTITLE8=9
TTITLE9=10
TTITLE10=11
TTITLE11=12
TTITLE12=13
TTITLE13=14
TTITLE14=15
TTITLE15=16
TTITLE16=17
TTITLE17=18
TTITLE18=19
TTITLE19=20
TTITLE20=21
TTITLE21=22
TTITLE22=23
EXTD=
EXTT0=
EXTT1=
EXTT2=
EXTT3=
EXTT4=
EXTT5=
EXTT6=
EXTT7=
EXTT8=
EXTT9=
EXTT10=
EXTT11=
EXTT12=
EXTT13=
EXTT14=
EXTT15=
EXTT16=
EXTT17=
EXTT18=
EXTT19=
EXTT20=
EXTT21=
EXTT22=
PLAYORDER=
